<svg width="64" height="64" viewBox="0 0 64 64" fill="none" xmlns="http://www.w3.org/2000/svg">
  <!-- Heart -->
  <path 
    d="M32 50s-9-7.5-14-12c-4.5-3.9-7-7.8-7-12.5C11 18.7 15.4 14 21 14c3.9 0 7.6 2 10 5.3C33.4 16 37.1 14 41 14c5.6 0 10 4.7 10 11.5 0 4.7-2.5 8.6-7 12.5-5 4.5-14 12-14 12z"
    fill="#FF6363"/>
  <!-- Left Hand -->
  <path 
    d="M16 44c-3 0-5.5-2.5-5.5-5.5v-4c0-1.7 1.3-3 3-3s3 1.3 3 3v3.5h4c1.7 0 3 1.3 3 3s-1.3 3-3 3H16z"
    fill="#FFD93B"/>
  <!-- Right Hand -->
  <path 
    d="M48 44c3 0 5.5-2.5 5.5-5.5v-4c0-1.7-1.3-3-3-3s-3 1.3-3 3v3.5h-4c-1.7 0-3 1.3-3 3s1.3 3 3 3h4z"
    fill="#FFD93B"/>
  <!-- Fingers (Left) -->
  <path 
    d="M14 35c0-1.7 1.3-3 3-3s3 1.3 3 3v4h-3c-1.7 0-3-1.3-3-3v-1z"
    fill="#FFE28C"/>
  <!-- Fingers (Right) -->
  <path 
    d="M50 35c0-1.7-1.3-3-3-3s-3 1.3-3 3v4h3c1.7 0 3-1.3 3-3v-1z"
    fill="#FFE28C"/>
</svg>
